<?xml version="1.0" encoding="UTF-8" standalone="no"?>
<!DOCTYPE svg PUBLIC "-//W3C//DTD SVG 1.1//EN" "http://www.w3.org/Graphics/SVG/1.1/DTD/svg11.dtd">
<svg width="100%" height="100%" viewBox="0 0 52 60" version="1.1" xmlns="http://www.w3.org/2000/svg" xmlns:xlink="http://www.w3.org/1999/xlink" xml:space="preserve" xmlns:serif="http://www.serif.com/" style="fill-rule:evenodd;clip-rule:evenodd;stroke-linejoin:round;stroke-miterlimit:1.41421;">
    <g id="notepad" transform="matrix(1,0,0,1,-4,0)">
        <path d="M25,46L35,46C35.553,46 36,45.552 36,45C36,44.448 35.553,44 35,44L25,44C24.447,44 24,44.448 24,45C24,45.552 24.447,46 25,46ZM25,40L41,40C41.553,40 42,39.552 42,39C42,38.448 41.553,38 41,38L25,38C24.447,38 24,38.448 24,39C24,39.552 24.447,40 25,40ZM24,33C24,33.552 24.447,34 25,34L43,34C43.553,34 44,33.552 44,33C44,32.448 43.553,32 43,32L25,32C24.447,32 24,32.448 24,33ZM25,28L39,28C39.553,28 40,27.552 40,27C40,26.448 39.553,26 39,26L25,26C24.447,26 24,26.448 24,27C24,27.552 24.447,28 25,28ZM25,22L41,22C41.553,22 42,21.552 42,21C42,20.448 41.553,20 41,20L25,20C24.447,20 24,20.448 24,21C24,21.552 24.447,22 25,22ZM19,44L17,44C16.447,44 16,44.448 16,45C16,45.552 16.447,46 17,46L19,46C19.553,46 20,45.552 20,45C20,44.448 19.553,44 19,44ZM19,38L17,38C16.447,38 16,38.448 16,39C16,39.552 16.447,40 17,40L19,40C19.553,40 20,39.552 20,39C20,38.448 19.553,38 19,38ZM19,32L17,32C16.447,32 16,32.448 16,33C16,33.552 16.447,34 17,34L19,34C19.553,34 20,33.552 20,33C20,32.448 19.553,32 19,32ZM19,26L17,26C16.447,26 16,26.448 16,27C16,27.552 16.447,28 17,28L19,28C19.553,28 20,27.552 20,27C20,26.448 19.553,26 19,26ZM17,22L19,22C19.553,22 20,21.552 20,21C20,20.448 19.553,20 19,20L17,20C16.447,20 16,20.448 16,21C16,21.552 16.447,22 17,22ZM20,10L40,10L40,6L34.899,6C34.424,6 34.014,5.665 33.92,5.199C33.543,3.345 31.895,2 30,2C28.105,2 26.457,3.345 26.08,5.199C25.986,5.665 25.576,6 25.101,6L20,6L20,10ZM18,11L18,5C18,4.448 18.447,4 19,4L24.343,4C25.178,1.64 27.439,0 30,0C32.561,0 34.822,1.64 35.657,4L41,4C41.553,4 42,4.448 42,5L42,11C42,11.552 41.553,12 41,12L19,12C18.447,12 18,11.552 18,11ZM30,4C28.897,4 28,4.897 28,6C28,7.103 28.897,8 30,8C31.103,8 32,7.103 32,6C32,4.897 31.103,4 30,4ZM45,56C45.256,56 45.512,55.902 45.707,55.707L51.707,49.707C51.895,49.52 52,49.265 52,49L52,9C52,8.448 51.553,8 51,8L45,8C44.447,8 44,8.448 44,9C44,9.552 44.447,10 45,10L50,10L50,48.586L44.293,54.293C43.902,54.684 43.902,55.316 44.293,55.707C44.488,55.902 44.744,56 45,56ZM15,8L9,8C8.447,8 8,8.448 8,9L8,52C8,54.206 9.794,56 12,56L41,56C41.553,56 42,55.552 42,55L42,49C42,48.547 42.446,48 43,48L47,48C47.553,48 48,47.552 48,47C48,46.448 47.553,46 47,46L43,46C41.402,46 40,47.402 40,49L40,54L12,54C10.897,54 10,53.103 10,52L10,10L15,10C15.553,10 16,9.552 16,9C16,8.448 15.553,8 15,8ZM56,9L56,55C56,57.57 53.57,60 51,60L9,60C6.43,60 4,57.57 4,55L4,9C4,6.43 6.43,4 9,4L15,4C15.553,4 16,4.448 16,5C16,5.552 15.553,6 15,6L9,6C7.542,6 6,7.542 6,9L6,55C6,56.458 7.542,58 9,58L51,58C52.458,58 54,56.458 54,55L54,9C54,7.542 52.458,6 51,6L45,6C44.447,6 44,5.552 44,5C44,4.448 44.447,4 45,4L51,4C53.57,4 56,6.43 56,9Z" style="fill:white;"/>
    </g>
</svg>
